<svg xmlns="http://www.w3.org/2000/svg" viewBox="0 0 100 100" width="100%" height="100%" fill="#005b96">
    <!-- Staff -->
    <rect x="47" y="15" width="6" height="75" rx="3" fill="#005b96"/>
    
    <!-- Wings -->
    <path d="M 47 30 C 25 15, 5 30, 5 30 C 15 45, 35 35, 47 35 Z" fill="#005b96"/>
    <path d="M 53 30 C 75 15, 95 30, 95 30 C 85 45, 65 35, 53 35 Z" fill="#005b96"/>
    
    <!-- Serpent 1 -->
    <path d="M 35 45 C 50 35, 65 45, 50 60 C 35 75, 50 85, 65 85" fill="none" stroke="#005b96" stroke-width="5" stroke-linecap="round"/>
    
    <!-- Serpent 2 -->
    <path d="M 65 45 C 50 35, 35 45, 50 60 C 65 75, 50 85, 35 85" fill="none" stroke="#005b96" stroke-width="5" stroke-linecap="round"/>
    
    <!-- Top Sphere -->
    <circle cx="50" cy="15" r="8" fill="#005b96"/>
</svg>
